<svg xmlns="http://www.w3.org/2000/svg" width="28" height="28" viewBox="0 0 28 28"><rect width="28" height="28" fill="none"/><path d="M40-783.2a3.727,3.727,0,0,1,.557-1.988,3.712,3.712,0,0,1,1.479-1.385,18.9,18.9,0,0,1,4.009-1.479,17.5,17.5,0,0,1,4.136-.494,17.5,17.5,0,0,1,4.136.494,18.9,18.9,0,0,1,4.009,1.479,3.712,3.712,0,0,1,1.479,1.385,3.728,3.728,0,0,1,.557,1.988v1.018a2.451,2.451,0,0,1-.747,1.8,2.451,2.451,0,0,1-1.8.748H42.545a2.452,2.452,0,0,1-1.8-.748,2.451,2.451,0,0,1-.747-1.8Zm22.209,3.564a4.644,4.644,0,0,0,.524-1.226,5.073,5.073,0,0,0,.176-1.32v-1.273a5.12,5.12,0,0,0-.779-2.688,6.874,6.874,0,0,0-2.212-2.211,16.06,16.06,0,0,1,3.055.652,15.927,15.927,0,0,1,2.673,1.13,5.637,5.637,0,0,1,1.75,1.416,2.719,2.719,0,0,1,.6,1.7v1.273a2.451,2.451,0,0,1-.748,1.8,2.452,2.452,0,0,1-1.8.748ZM50.182-789.818a4.9,4.9,0,0,1-3.6-1.5,4.9,4.9,0,0,1-1.5-3.6,4.9,4.9,0,0,1,1.5-3.6,4.9,4.9,0,0,1,3.6-1.5,4.9,4.9,0,0,1,3.6,1.5,4.9,4.9,0,0,1,1.5,3.6,4.9,4.9,0,0,1-1.5,3.6,4.9,4.9,0,0,1-3.6,1.5Zm12.727-5.091a4.9,4.9,0,0,1-1.5,3.6,4.9,4.9,0,0,1-3.6,1.5,6.361,6.361,0,0,1-.891-.079,7.757,7.757,0,0,1-.891-.175,7.567,7.567,0,0,0,1.321-2.259,7.337,7.337,0,0,0,.461-2.577,7.335,7.335,0,0,0-.462-2.577,7.569,7.569,0,0,0-1.32-2.259,3.875,3.875,0,0,1,.891-.206,8.306,8.306,0,0,1,.891-.049,4.9,4.9,0,0,1,3.6,1.5,4.9,4.9,0,0,1,1.5,3.6Z" transform="translate(-40 803.818)" fill="#8b8b8b"/></svg>