<svg xmlns="http://www.w3.org/2000/svg" width="28" height="28" viewBox="0 0 28 28"><rect width="28" height="28" fill="none"/><path d="M160-800.514v-11.314a2.5,2.5,0,0,1,.267-1.131,2.411,2.411,0,0,1,.739-.88l7.543-5.657a2.423,2.423,0,0,1,1.509-.5,2.422,2.422,0,0,1,1.509.5l7.543,5.657a2.412,2.412,0,0,1,.739.88,2.5,2.5,0,0,1,.267,1.131v11.314a2.421,2.421,0,0,1-.739,1.776A2.421,2.421,0,0,1,177.6-798h-3.771a1.217,1.217,0,0,1-.9-.361,1.216,1.216,0,0,1-.361-.9v-6.286a1.216,1.216,0,0,0-.361-.9,1.217,1.217,0,0,0-.9-.361H168.8a1.217,1.217,0,0,0-.9.361,1.216,1.216,0,0,0-.361.9v6.286a1.216,1.216,0,0,1-.361.9,1.217,1.217,0,0,1-.9.361h-3.771a2.421,2.421,0,0,1-1.776-.739,2.421,2.421,0,0,1-.731-1.775Z" transform="translate(-156 823)" fill="#8b8b8b"/></svg>