<svg xmlns="http://www.w3.org/2000/svg" width="16" height="16" viewBox="0 0 16 16"><path d="M11.284,5.332l.309.309a.612.612,0,0,1,0,.867l-.744.747L9.669,6.076l.744-.745a.612.612,0,0,1,.867,0ZM5.368,10.38,8.8,6.944l1.18,1.18L6.545,11.557a.612.612,0,0,1-.266.156l-1.5.424.427-1.5a.612.612,0,0,1,.156-.266ZM9.546,4.464,4.5,9.51a1.828,1.828,0,0,0-.468.8L3.3,12.865a.614.614,0,0,0,.76.76l2.558-.732a1.849,1.849,0,0,0,.8-.468l5.048-5.047a1.843,1.843,0,0,0,0-2.6l-.309-.309A1.842,1.842,0,0,0,9.546,4.464Zm-7.293,1A2.253,2.253,0,0,0,0,7.717v6.96A2.253,2.253,0,0,0,2.253,16.93H9.213a2.253,2.253,0,0,0,2.253-2.253V11.808a.614.614,0,1,0-1.228,0v2.866A1.024,1.024,0,0,1,9.214,15.7H2.253A1.024,1.024,0,0,1,1.23,14.674V7.717A1.024,1.024,0,0,1,2.253,6.691h2.86a.614.614,0,1,0,0-1.227Z" transform="translate(1.5 -2.425)" fill="#696969"/><rect width="16" height="16" fill="none"/></svg>