<svg xmlns="http://www.w3.org/2000/svg" width="15" height="13.125" viewBox="0 0 15 13.125"><g transform="translate(-2 -3)"><path d="M13,9h1.424a.5.5,0,1,1,0,1H6.562a.5.5,0,1,1,0-1h.851a.916.916,0,0,1-.138-1.17L10.083,3.5a1.2,1.2,0,0,1,1.535-.366l2.919,1.5A.943.943,0,0,1,14.948,6Zm.973-3.5L11.056,4,8.247,8.33,9.55,9H11.7Z" transform="translate(-1.012)" fill="#696969"/><path d="M13.212,7.912,13.753,7a.945.945,0,0,1,.716.364l2.344,3.042a.9.9,0,0,1,.188.547v4.258a.925.925,0,0,1-.937.912H2.938A.925.925,0,0,1,2,15.213V10.954a.9.9,0,0,1,.188-.547L4.531,7.365A.946.946,0,0,1,5.281,7h.9l-.449.758a.907.907,0,0,0-.073.155H5.281L3.172,10.65H15.828L13.719,7.912Zm-10.275,7.3H16.063v-3.65H2.938Z" transform="translate(0)" fill="#696969"/></g></svg>