<svg xmlns="http://www.w3.org/2000/svg" width="23.8" height="28" viewBox="0 0 23.8 28">
  <g id="notifications-bell-button_icon-icons.com_72648" transform="translate(-38.25)">
    <g id="notifications-none" transform="translate(38.25)">
      <path id="패스_99" data-name="패스 99" d="M50.15,28a2.808,2.808,0,0,0,2.8-2.8h-5.6A2.808,2.808,0,0,0,50.15,28Zm9.1-8.4V11.9a9.009,9.009,0,0,0-7-8.82V2.1a2.1,2.1,0,1,0-4.2,0v.98a9.009,9.009,0,0,0-7,8.82v7.7l-2.8,2.8v1.4h23.8V22.4ZM56.45,21H43.85V11.9a6.3,6.3,0,1,1,12.6,0Z" transform="translate(-38.25)"/>
    </g>
  </g>
</svg>
