<svg xmlns="http://www.w3.org/2000/svg" width="28" height="28" viewBox="0 0 28 28"><rect width="28" height="28" fill="none"/><path d="M171-789a5.3,5.3,0,0,1-3.884-1.615A5.3,5.3,0,0,1,165.5-794.5a5.3,5.3,0,0,1,1.616-3.884A5.3,5.3,0,0,1,171-800a5.3,5.3,0,0,1,3.884,1.616A5.3,5.3,0,0,1,176.5-794.5a5.3,5.3,0,0,1-1.616,3.884A5.3,5.3,0,0,1,171-789Zm-11,8.25v-1.1a4.028,4.028,0,0,1,.6-2.148,4.009,4.009,0,0,1,1.6-1.5,20.407,20.407,0,0,1,4.331-1.6,18.912,18.912,0,0,1,4.469-.533,18.909,18.909,0,0,1,4.469.533,20.41,20.41,0,0,1,4.331,1.6,4.009,4.009,0,0,1,1.6,1.5,4.027,4.027,0,0,1,.6,2.148v1.1a2.648,2.648,0,0,1-.808,1.942,2.648,2.648,0,0,1-1.942.808h-16.5a2.648,2.648,0,0,1-1.942-.808A2.648,2.648,0,0,1,160-780.75Z" transform="translate(-157 803)" fill="#8b8b8b"/></svg>